M48
; DRILL file {KiCad (6.0.1-0)} date Wednesday, March 16, 2022 at 12:29:03 am
; FORMAT={-:-/ absolute / inch / decimal}
; #@! TF.CreationDate,2022-03-16T00:29:03-04:00
; #@! TF.GenerationSoftware,Kicad,Pcbnew,(6.0.1-0)
; #@! TF.FileFunction,Plated,1,2,PTH
FMAT,2
INCH
; #@! TA.AperFunction,Plated,PTH,ComponentDrill
T1C0.0279
; #@! TA.AperFunction,Plated,PTH,ComponentDrill
T2C0.0315
; #@! TA.AperFunction,Plated,PTH,ComponentDrill
T3C0.0394
; #@! TA.AperFunction,Plated,PTH,ComponentDrill
T4C0.0433
; #@! TA.AperFunction,Plated,PTH,ComponentDrill
T5C0.0512
; #@! TA.AperFunction,Plated,PTH,ComponentDrill
T6C0.0591
; #@! TA.AperFunction,Plated,PTH,ComponentDrill
T7C0.0728
; #@! TA.AperFunction,Plated,PTH,ComponentDrill
T8C0.0787
%
G90
G05
T1
X7.3697Y-6.8331
X7.3697Y-7.0331
X7.6697Y-6.8331
X7.6697Y-7.0331
X8.5843Y-6.8331
X8.5843Y-7.0331
X8.8843Y-6.8331
X8.8843Y-7.0331
T2
X1.4205Y-6.9409
X1.4272Y-7.4803
X1.4272Y-7.5807
X1.4272Y-7.7776
X1.4307Y-5.0276
X1.4429Y-7.0602
X1.4429Y-7.3602
X1.5217Y-7.5807
X1.5217Y-7.7776
X1.5429Y-7.0602
X1.5429Y-7.3602
X1.628Y-7.5823
X1.628Y-7.8823
X1.6429Y-7.0602
X1.6429Y-7.3602
X1.7205Y-6.9409
X1.7272Y-7.4803
X1.7307Y-5.0276
X1.7429Y-7.0602
X1.7429Y-7.3602
X1.7461Y-7.5823
X1.7461Y-7.8823
X1.9169Y-5.0315
X1.9169Y-6.9409
X1.9232Y-7.4803
X1.9232Y-7.5807
X1.9232Y-7.7776
X1.939Y-7.0602
X1.939Y-7.3602
X2.0177Y-7.5807
X2.0177Y-7.7776
X2.039Y-7.0602
X2.039Y-7.3602
X2.124Y-7.5823
X2.124Y-7.8823
X2.139Y-7.0602
X2.139Y-7.3602
X2.2169Y-5.0315
X2.2169Y-6.9409
X2.2232Y-7.4803
X2.239Y-7.0602
X2.239Y-7.3602
X2.2421Y-7.5823
X2.2421Y-7.8823
X2.4051Y-5.0315
X2.4071Y-6.9409
X2.4134Y-7.4803
X2.4134Y-7.5807
X2.4134Y-7.7776
X2.4291Y-7.0602
X2.4291Y-7.3602
X2.5079Y-7.5807
X2.5079Y-7.7776
X2.5291Y-7.0602
X2.5291Y-7.3602
X2.6142Y-7.5823
X2.6142Y-7.8823
X2.6291Y-7.0602
X2.6291Y-7.3602
X2.7051Y-5.0315
X2.7071Y-6.9409
X2.7134Y-7.4803
X2.7291Y-7.0602
X2.7291Y-7.3602
X2.7323Y-7.5823
X2.7323Y-7.8823
X2.8913Y-5.0315
X2.8988Y-6.9409
X2.9051Y-7.4803
X2.9055Y-7.5807
X2.9055Y-7.7776
X2.9213Y-7.0602
X2.9213Y-7.3602
X3.0Y-7.5807
X3.0Y-7.7776
X3.0213Y-7.0602
X3.0213Y-7.3602
X3.1063Y-7.5823
X3.1063Y-7.8823
X3.1213Y-7.0602
X3.1213Y-7.3602
X3.1913Y-5.0315
X3.1988Y-6.9409
X3.2051Y-7.4803
X3.2213Y-7.0602
X3.2213Y-7.3602
X3.2244Y-7.5823
X3.2244Y-7.8823
X3.3874Y-5.0335
X3.3953Y-6.9409
X3.4016Y-7.4803
X3.4016Y-7.5807
X3.4016Y-7.7776
X3.4173Y-7.0602
X3.4173Y-7.3602
X3.4961Y-7.5807
X3.4961Y-7.7776
X3.5173Y-7.0602
X3.5173Y-7.3602
X3.6024Y-7.5823
X3.6024Y-7.8823
X3.6173Y-7.0602
X3.6173Y-7.3602
X3.6874Y-5.0335
X3.6953Y-6.9409
X3.7016Y-7.4803
X3.7173Y-7.0602
X3.7173Y-7.3602
X3.7205Y-7.5823
X3.7205Y-7.8823
X3.8988Y-6.9409
X3.9051Y-7.4803
X3.9051Y-7.5807
X3.9051Y-7.7776
X3.9067Y-5.0335
X3.9209Y-7.0602
X3.9209Y-7.3602
X3.9996Y-7.5807
X3.9996Y-7.7776
X4.0209Y-7.0602
X4.0209Y-7.3602
X4.1059Y-7.5823
X4.1059Y-7.8823
X4.1209Y-7.0602
X4.1209Y-7.3602
X4.1988Y-6.9409
X4.2051Y-7.4803
X4.2067Y-5.0335
X4.2209Y-7.0602
X4.2209Y-7.3602
X4.224Y-7.5823
X4.224Y-7.8823
X4.3992Y-5.0315
X4.4012Y-6.9409
X4.4075Y-7.5807
X4.4075Y-7.7776
X4.4091Y-7.4803
X4.4232Y-7.0602
X4.4232Y-7.3602
X4.502Y-7.5807
X4.502Y-7.7776
X4.5232Y-7.0602
X4.5232Y-7.3602
X4.6083Y-7.5823
X4.6083Y-7.8823
X4.6232Y-7.0602
X4.6232Y-7.3602
X4.6992Y-5.0315
X4.7012Y-6.9409
X4.7091Y-7.4803
X4.7232Y-7.0602
X4.7232Y-7.3602
X4.7264Y-7.5823
X4.7264Y-7.8823
X4.8992Y-5.0335
X4.9012Y-6.9409
X4.9075Y-7.4803
X4.9075Y-7.5807
X4.9075Y-7.7776
X4.9232Y-7.0602
X4.9232Y-7.3602
X5.002Y-7.5807
X5.002Y-7.7776
X5.0232Y-7.0602
X5.0232Y-7.3602
X5.1083Y-7.5823
X5.1083Y-7.8823
X5.1232Y-7.0602
X5.1232Y-7.3602
X5.1992Y-5.0335
X5.2012Y-6.9409
X5.2075Y-7.4803
X5.2232Y-7.0602
X5.2232Y-7.3602
X5.2264Y-7.5823
X5.2264Y-7.8823
X5.3992Y-5.0295
X5.4012Y-6.939
X5.4071Y-7.4783
X5.4075Y-7.5787
X5.4075Y-7.7756
X5.4232Y-7.0583
X5.4232Y-7.3583
X5.502Y-7.5787
X5.502Y-7.7756
X5.5232Y-7.0583
X5.5232Y-7.3583
X5.6083Y-7.5803
X5.6083Y-7.8803
X5.6232Y-7.0583
X5.6232Y-7.3583
X5.6992Y-5.0295
X5.7012Y-6.939
X5.7071Y-7.4783
X5.7232Y-7.0583
X5.7232Y-7.3583
X5.7264Y-7.5803
X5.7264Y-7.8803
X5.9012Y-5.0315
X5.9051Y-6.939
X5.9114Y-7.4783
X5.9114Y-7.5787
X5.9114Y-7.7756
X5.9272Y-7.0583
X5.9272Y-7.3583
X6.0059Y-7.5787
X6.0059Y-7.7756
X6.0272Y-7.0583
X6.0272Y-7.3583
X6.1122Y-7.5803
X6.1122Y-7.8803
X6.1272Y-7.0583
X6.1272Y-7.3583
X6.2012Y-5.0315
X6.2051Y-6.939
X6.2114Y-7.4783
X6.2272Y-7.0583
X6.2272Y-7.3583
X6.2303Y-7.5803
X6.2303Y-7.8803
X6.4091Y-7.4783
X6.4291Y-7.0583
X6.4291Y-7.3583
X6.4346Y-5.0295
X6.5059Y-7.683
X6.5059Y-7.8208
X6.5291Y-7.0583
X6.5291Y-7.3583
X6.6291Y-7.0583
X6.6291Y-7.3583
X6.7091Y-7.4783
X6.7291Y-7.0583
X6.7291Y-7.3583
X6.7346Y-5.0295
X6.8504Y-7.0783
X6.8504Y-7.3783
X7.0236Y-7.1831
X7.0473Y-7.4134
X7.1851Y-7.4134
X7.2205Y-7.1831
X7.3067Y-5.1634
X7.3083Y-5.3287
X7.3083Y-5.4921
X7.3083Y-5.6594
X7.3083Y-5.8248
X7.3083Y-5.9843
X7.3083Y-6.1457
X7.3083Y-6.3051
X7.3083Y-6.4665
X7.3087Y-6.626
X7.6067Y-5.1634
X7.6083Y-5.3287
X7.6083Y-5.4921
X7.6083Y-5.6594
X7.6083Y-5.8248
X7.6083Y-5.9843
X7.6083Y-6.1457
X7.6083Y-6.3051
X7.6083Y-6.4665
X7.6087Y-6.626
X7.7437Y-5.8858
X7.7874Y-5.374
X7.8208Y-5.6201
X7.8583Y-6.0885
X7.8583Y-6.2263
X7.9586Y-5.6201
X7.9843Y-5.374
X8.0236Y-6.3976
X8.0437Y-5.8858
X8.1535Y-6.0472
X8.1535Y-6.2441
X8.1807Y-5.8858
X8.2205Y-6.3976
X8.2343Y-5.374
X8.2656Y-5.6201
X8.4034Y-5.6201
X8.4311Y-5.374
X8.4807Y-5.8858
X8.6319Y-5.1555
X8.6319Y-5.313
X8.6323Y-5.4783
X8.6335Y-5.6594
X8.6339Y-5.8268
X8.6339Y-5.9921
X8.6354Y-6.1476
X8.6358Y-6.3071
X8.6378Y-6.4685
X8.6394Y-6.628
X8.9319Y-5.1555
X8.9319Y-5.313
X8.9323Y-5.4783
X8.9335Y-5.6594
X8.9339Y-5.8268
X8.9339Y-5.9921
X8.9354Y-6.1476
X8.9358Y-6.3071
X8.9378Y-6.4685
X8.9394Y-6.628
X9.0394Y-7.1831
X9.0727Y-7.4193
X9.2105Y-7.4193
X9.2362Y-7.1831
X9.4232Y-7.0764
X9.4232Y-7.3764
X9.5488Y-5.0217
X9.5492Y-7.0563
X9.5492Y-7.3563
X9.5705Y-7.4764
X9.6492Y-7.0563
X9.6492Y-7.3563
X9.7492Y-7.0563
X9.7492Y-7.3563
X9.7697Y-7.681
X9.7697Y-7.8188
X9.8488Y-5.0217
X9.8492Y-7.0563
X9.8492Y-7.3563
X9.8705Y-7.4764
X10.035Y-5.0217
X10.035Y-6.935
X10.0394Y-7.4744
X10.0394Y-7.5748
X10.0394Y-7.7717
X10.0571Y-7.0543
X10.0571Y-7.3543
X10.1339Y-7.5748
X10.1339Y-7.7717
X10.1571Y-7.0543
X10.1571Y-7.3543
X10.2402Y-7.5764
X10.2402Y-7.8764
X10.2571Y-7.0543
X10.2571Y-7.3543
X10.335Y-5.0217
X10.335Y-6.935
X10.3394Y-7.4744
X10.3571Y-7.0543
X10.3571Y-7.3543
X10.3583Y-7.5764
X10.3583Y-7.8764
X10.5409Y-5.0236
X10.5449Y-6.935
X10.5508Y-7.4744
X10.5512Y-7.5748
X10.5512Y-7.7717
X10.5669Y-7.0543
X10.5669Y-7.3543
X10.6457Y-7.5748
X10.6457Y-7.7717
X10.6669Y-7.0543
X10.6669Y-7.3543
X10.752Y-7.5764
X10.752Y-7.8764
X10.7669Y-7.0543
X10.7669Y-7.3543
X10.8409Y-5.0236
X10.8449Y-6.935
X10.8508Y-7.4744
X10.8669Y-7.0543
X10.8669Y-7.3543
X10.8701Y-7.5764
X10.8701Y-7.8764
X11.0528Y-5.0236
X11.0528Y-6.937
X11.0591Y-7.4764
X11.0591Y-7.5768
X11.0591Y-7.7736
X11.0748Y-7.0563
X11.0748Y-7.3563
X11.1535Y-7.5768
X11.1535Y-7.7736
X11.1748Y-7.0563
X11.1748Y-7.3563
X11.2598Y-7.5783
X11.2598Y-7.8783
X11.2748Y-7.0563
X11.2748Y-7.3563
X11.3528Y-5.0236
X11.3528Y-6.937
X11.3591Y-7.4764
X11.3748Y-7.0563
X11.3748Y-7.3563
X11.378Y-7.5783
X11.378Y-7.8783
X11.5528Y-5.0236
X11.5567Y-6.937
X11.5626Y-7.4764
X11.563Y-7.5768
X11.563Y-7.7736
X11.5791Y-7.0563
X11.5791Y-7.3563
X11.6575Y-7.5768
X11.6575Y-7.7736
X11.6791Y-7.0563
X11.6791Y-7.3563
X11.7638Y-7.5783
X11.7638Y-7.8783
X11.7791Y-7.0563
X11.7791Y-7.3563
X11.8528Y-5.0236
X11.8567Y-6.937
X11.8626Y-7.4764
X11.8791Y-7.0563
X11.8791Y-7.3563
X11.8819Y-7.5783
X11.8819Y-7.8783
X12.0665Y-5.0236
X12.0705Y-6.935
X12.0768Y-7.4744
X12.0768Y-7.5748
X12.0768Y-7.7717
X12.0925Y-7.0543
X12.0925Y-7.3543
X12.1713Y-7.5748
X12.1713Y-7.7717
X12.1925Y-7.0543
X12.1925Y-7.3543
X12.2776Y-7.5764
X12.2776Y-7.8764
X12.2925Y-7.0543
X12.2925Y-7.3543
X12.3665Y-5.0236
X12.3705Y-6.935
X12.3768Y-7.4744
X12.3925Y-7.0543
X12.3925Y-7.3543
X12.3957Y-7.5764
X12.3957Y-7.8764
X12.5665Y-5.0276
X12.5665Y-6.939
X12.5728Y-7.4783
X12.5728Y-7.5787
X12.5728Y-7.7756
X12.5886Y-7.0583
X12.5886Y-7.3583
X12.6673Y-7.5787
X12.6673Y-7.7756
X12.6886Y-7.0583
X12.6886Y-7.3583
X12.7736Y-7.5803
X12.7736Y-7.8803
X12.7886Y-7.0583
X12.7886Y-7.3583
X12.8665Y-5.0276
X12.8665Y-6.939
X12.8728Y-7.4783
X12.8886Y-7.0583
X12.8886Y-7.3583
X12.8917Y-7.5803
X12.8917Y-7.8803
X13.0606Y-5.0276
X13.0646Y-6.939
X13.0705Y-7.4783
X13.0709Y-7.5787
X13.0709Y-7.7756
X13.0866Y-7.0583
X13.0866Y-7.3583
X13.1654Y-7.5787
X13.1654Y-7.7756
X13.1866Y-7.0583
X13.1866Y-7.3583
X13.2717Y-7.5803
X13.2717Y-7.8803
X13.2866Y-7.0583
X13.2866Y-7.3583
X13.3606Y-5.0276
X13.3646Y-6.939
X13.3705Y-7.4783
X13.3866Y-7.0583
X13.3866Y-7.3583
X13.3898Y-7.5803
X13.3898Y-7.8803
X13.5606Y-5.0256
X13.5646Y-6.939
X13.5709Y-7.4783
X13.5709Y-7.5787
X13.5709Y-7.7756
X13.5866Y-7.0583
X13.5866Y-7.3583
X13.6654Y-7.5787
X13.6654Y-7.7756
X13.6866Y-7.0583
X13.6866Y-7.3583
X13.7717Y-7.5803
X13.7717Y-7.8803
X13.7866Y-7.0583
X13.7866Y-7.3583
X13.8606Y-5.0256
X13.8646Y-6.939
X13.8709Y-7.4783
X13.8866Y-7.0583
X13.8866Y-7.3583
X13.8898Y-7.5803
X13.8898Y-7.8803
X14.0528Y-5.0276
X14.0579Y-6.939
X14.0646Y-7.4783
X14.0646Y-7.5787
X14.0646Y-7.7756
X14.0803Y-7.0583
X14.0803Y-7.3583
X14.1591Y-7.5787
X14.1591Y-7.7756
X14.1803Y-7.0583
X14.1803Y-7.3583
X14.2654Y-7.5803
X14.2654Y-7.8803
X14.2803Y-7.0583
X14.2803Y-7.3583
X14.3528Y-5.0276
X14.3579Y-6.939
X14.3646Y-7.4783
X14.3803Y-7.0583
X14.3803Y-7.3583
X14.3835Y-7.5803
X14.3835Y-7.8803
X14.5469Y-5.0276
X14.5547Y-6.939
X14.5606Y-7.4783
X14.561Y-7.5807
X14.561Y-7.7776
X14.5768Y-7.0583
X14.5768Y-7.3583
X14.6555Y-7.5787
X14.6555Y-7.7756
X14.6768Y-7.0583
X14.6768Y-7.3583
X14.7618Y-7.5799
X14.7618Y-7.8799
X14.7768Y-7.0583
X14.7768Y-7.3583
X14.8469Y-5.0276
X14.8547Y-6.939
X14.8606Y-7.4783
X14.8768Y-7.0583
X14.8768Y-7.3583
X14.8799Y-7.5803
X14.8799Y-7.8803
T3
X6.8465Y-7.4961
X7.126Y-5.1634
X7.126Y-5.3268
X7.126Y-5.4921
X7.126Y-5.6594
X7.126Y-5.8228
X7.126Y-5.9843
X7.126Y-6.1476
X7.126Y-6.3051
X7.126Y-6.4665
X7.126Y-6.628
X7.126Y-6.7972
X7.126Y-6.9665
X7.7874Y-5.1969
X8.1102Y-5.1969
X8.4311Y-5.1969
X9.1181Y-5.6594
X9.1181Y-6.1476
X9.1201Y-5.1555
X9.1201Y-5.313
X9.1201Y-5.4783
X9.1201Y-5.8268
X9.1201Y-5.9921
X9.1201Y-6.3071
X9.1201Y-6.4685
X9.1201Y-6.628
X9.122Y-6.9764
X9.124Y-6.8051
X9.4075Y-7.5177
T4
X8.4624Y-6.1126
X8.4624Y-6.2126
X8.4624Y-6.3126
T5
X1.4272Y-6.7717
X1.5256Y-5.1969
X1.5256Y-6.7717
X1.624Y-6.7717
X1.7224Y-5.1969
X1.7224Y-6.7717
X1.9213Y-6.7736
X2.0197Y-5.1988
X2.0197Y-6.7736
X2.1181Y-6.7736
X2.2165Y-5.1988
X2.2165Y-6.7736
X2.4075Y-6.7736
X2.5059Y-5.1988
X2.5059Y-6.7736
X2.6043Y-6.7736
X2.7028Y-5.1988
X2.7028Y-6.7736
X2.8957Y-6.7736
X2.9941Y-5.1988
X2.9941Y-6.7736
X3.0925Y-6.7736
X3.1909Y-5.1988
X3.1909Y-6.7736
X3.3917Y-6.7756
X3.4902Y-5.2008
X3.4902Y-6.7756
X3.5886Y-6.7756
X3.687Y-5.2008
X3.687Y-6.7756
X3.9091Y-6.7756
X4.0075Y-5.2008
X4.0075Y-6.7756
X4.1059Y-6.7756
X4.2043Y-5.2008
X4.2043Y-6.7756
X4.4055Y-6.7736
X4.5039Y-5.1988
X4.5039Y-6.7736
X4.6024Y-6.7736
X4.7008Y-5.1988
X4.7008Y-6.7736
X4.9055Y-6.7756
X5.0039Y-5.2008
X5.0039Y-6.7756
X5.1024Y-6.7756
X5.2008Y-5.2008
X5.2008Y-6.7756
X5.4055Y-6.7736
X5.5039Y-5.1988
X5.5039Y-6.7736
X5.6024Y-6.7736
X5.7008Y-5.1988
X5.7008Y-6.7736
X5.9075Y-6.7736
X6.0059Y-5.1988
X6.0059Y-6.7736
X6.1043Y-6.7736
X6.2028Y-5.1988
X6.2028Y-6.7736
X6.4409Y-6.7717
X6.5394Y-5.1969
X6.5394Y-6.7717
X6.6378Y-6.7717
X6.7362Y-5.1969
X6.7362Y-6.7717
X9.5531Y-6.7697
X9.6516Y-5.1949
X9.6516Y-6.7697
X9.75Y-6.7697
X9.8484Y-5.1949
X9.8484Y-6.7697
X10.0413Y-6.7697
X10.1398Y-5.1949
X10.1398Y-6.7697
X10.2382Y-6.7697
X10.3366Y-5.1949
X10.3366Y-6.7697
X10.5453Y-6.7697
X10.6437Y-5.1949
X10.6437Y-6.7697
X10.7421Y-6.7697
X10.8406Y-5.1949
X10.8406Y-6.7697
X11.0571Y-6.7697
X11.1555Y-5.1949
X11.1555Y-6.7697
X11.2539Y-6.7697
X11.3524Y-5.1949
X11.3524Y-6.7697
X11.5571Y-6.7697
X11.6555Y-5.1949
X11.6555Y-6.7697
X11.7539Y-6.7697
X11.8524Y-5.1949
X11.8524Y-6.7697
X12.0709Y-6.7677
X12.1693Y-5.1929
X12.1693Y-6.7677
X12.2677Y-6.7677
X12.3661Y-5.1929
X12.3661Y-6.7677
X12.5689Y-6.7717
X12.6673Y-5.1969
X12.6673Y-6.7717
X12.7657Y-6.7717
X12.8642Y-5.1969
X12.8642Y-6.7717
X13.065Y-6.7717
X13.1634Y-5.1969
X13.1634Y-6.7717
X13.2618Y-6.7717
X13.3602Y-5.1969
X13.3602Y-6.7717
X13.5669Y-6.7717
X13.6654Y-5.1969
X13.6654Y-6.7717
X13.7638Y-6.7717
X13.8622Y-5.1969
X13.8622Y-6.7717
X14.0567Y-6.7717
X14.1551Y-5.1969
X14.1551Y-6.7717
X14.2535Y-6.7717
X14.352Y-5.1969
X14.352Y-6.7717
X14.5512Y-6.7717
X14.6496Y-5.1969
X14.6496Y-6.7717
X14.748Y-6.7717
X14.8465Y-5.1969
X14.8465Y-6.7717
T6
X7.4646Y-7.7933
X7.6634Y-7.8681
X8.5787Y-7.7933
X8.7776Y-7.8681
T7
X6.813Y-7.7953
X6.998Y-7.7953
X7.1831Y-7.7953
X8.1197Y-6.6717
X8.1197Y-6.8567
X8.1197Y-7.0417
X9.0709Y-7.8189
X9.2559Y-7.8189
X9.4409Y-7.8189
T8
X7.6585Y-7.502
X8.7726Y-7.502
T3
G00X8.0804Y-7.5197
M15
G01X8.1592Y-7.5197
M16
G05
G00X8.0804Y-7.7559
M15
G01X8.1592Y-7.7559
M16
G05
G00X8.3048Y-7.6772
M15
G01X8.3048Y-7.5984
M16
G05
T0
M30
