%TF.GenerationSoftware,KiCad,Pcbnew,(6.0.1-0)*%
%TF.CreationDate,2022-03-16T00:28:59-04:00*%
%TF.ProjectId,spectrum,73706563-7472-4756-9d2e-6b696361645f,0*%
%TF.SameCoordinates,Original*%
%TF.FileFunction,Soldermask,Top*%
%TF.FilePolarity,Negative*%
%FSLAX46Y46*%
G04 Gerber Fmt 4.6, Leading zero omitted, Abs format (unit mm)*
G04 Created by KiCad (PCBNEW (6.0.1-0)) date 2022-03-16 00:28:59*
%MOMM*%
%LPD*%
G01*
G04 APERTURE LIST*
G04 Aperture macros list*
%AMRoundRect*
0 Rectangle with rounded corners*
0 $1 Rounding radius*
0 $2 $3 $4 $5 $6 $7 $8 $9 X,Y pos of 4 corners*
0 Add a 4 corners polygon primitive as box body*
4,1,4,$2,$3,$4,$5,$6,$7,$8,$9,$2,$3,0*
0 Add four circle primitives for the rounded corners*
1,1,$1+$1,$2,$3*
1,1,$1+$1,$4,$5*
1,1,$1+$1,$6,$7*
1,1,$1+$1,$8,$9*
0 Add four rect primitives between the rounded corners*
20,1,$1+$1,$2,$3,$4,$5,0*
20,1,$1+$1,$4,$5,$6,$7,0*
20,1,$1+$1,$6,$7,$8,$9,0*
20,1,$1+$1,$8,$9,$2,$3,0*%
G04 Aperture macros list end*
%ADD10C,1.600000*%
%ADD11C,2.250000*%
%ADD12C,3.000000*%
%ADD13O,1.600000X1.600000*%
%ADD14C,1.950000*%
%ADD15R,1.600000X2.400000*%
%ADD16O,1.600000X2.400000*%
%ADD17C,2.000000*%
%ADD18R,3.500000X3.500000*%
%ADD19RoundRect,0.750000X1.000000X-0.750000X1.000000X0.750000X-1.000000X0.750000X-1.000000X-0.750000X0*%
%ADD20RoundRect,0.875000X0.875000X-0.875000X0.875000X0.875000X-0.875000X0.875000X-0.875000X-0.875000X0*%
%ADD21R,1.150000X1.150000*%
%ADD22C,1.150000*%
%ADD23R,1.600000X1.600000*%
%ADD24R,2.000000X1.905000*%
%ADD25O,2.000000X1.905000*%
%ADD26R,2.450000X2.450000*%
%ADD27C,2.450000*%
G04 APERTURE END LIST*
D10*
%TO.C,J3*%
X220425000Y-191750000D03*
X220425000Y-198750000D03*
D11*
X217900000Y-197950000D03*
X222950000Y-199850000D03*
D12*
X222825000Y-190550000D03*
%TD*%
D10*
%TO.C,J2*%
X192125000Y-191750000D03*
X192125000Y-198750000D03*
D11*
X189600000Y-197950000D03*
X194650000Y-199850000D03*
D12*
X194525000Y-190550000D03*
%TD*%
D10*
%TO.C,R83*%
X219350000Y-160200000D03*
D13*
X226970000Y-160200000D03*
%TD*%
D14*
%TO.C,PTL18*%
X309100000Y-171900000D03*
X306600000Y-171900000D03*
X309100000Y-131900000D03*
X314100000Y-131900000D03*
X314100000Y-171900000D03*
X311600000Y-171900000D03*
%TD*%
D10*
%TO.C,R114*%
X276100000Y-200060000D03*
D13*
X276100000Y-192440000D03*
%TD*%
D15*
%TO.C,U10*%
X49250000Y-186950000D03*
D16*
X51790000Y-186950000D03*
X54330000Y-186950000D03*
X56870000Y-186950000D03*
X56870000Y-179330000D03*
X54330000Y-179330000D03*
X51790000Y-179330000D03*
X49250000Y-179330000D03*
%TD*%
D17*
%TO.C,TP10*%
X181000000Y-160150000D03*
%TD*%
D10*
%TO.C,R120*%
X324450000Y-200160000D03*
D13*
X324450000Y-192540000D03*
%TD*%
D17*
%TO.C,TP23*%
X231600000Y-156150000D03*
%TD*%
%TO.C,TP21*%
X231650000Y-148000000D03*
%TD*%
D10*
%TO.C,R76*%
X219250000Y-130950000D03*
D13*
X226870000Y-130950000D03*
%TD*%
D10*
%TO.C,R12*%
X158250000Y-200160000D03*
D13*
X158250000Y-192540000D03*
%TD*%
D10*
%TO.C,R42*%
X193210000Y-131150000D03*
D13*
X185590000Y-131150000D03*
%TD*%
D10*
%TO.C,C40*%
X369850000Y-197550000D03*
X369850000Y-192550000D03*
%TD*%
D15*
%TO.C,U6*%
X99590000Y-186950000D03*
D16*
X102130000Y-186950000D03*
X104670000Y-186950000D03*
X107210000Y-186950000D03*
X107210000Y-179330000D03*
X104670000Y-179330000D03*
X102130000Y-179330000D03*
X99590000Y-179330000D03*
%TD*%
D10*
%TO.C,R99*%
X331990000Y-189950000D03*
D13*
X339610000Y-189950000D03*
%TD*%
D17*
%TO.C,TP26*%
X231650000Y-168350000D03*
%TD*%
D10*
%TO.C,R93*%
X288360000Y-176200000D03*
D13*
X280740000Y-176200000D03*
%TD*%
D10*
%TO.C,R44*%
X193250000Y-139500000D03*
D13*
X185630000Y-139500000D03*
%TD*%
D10*
%TO.C,C4*%
X124650000Y-197550000D03*
X124650000Y-192550000D03*
%TD*%
%TO.C,C42*%
X344700000Y-197500000D03*
X344700000Y-192500000D03*
%TD*%
%TO.C,R67*%
X306490000Y-127600000D03*
D13*
X314110000Y-127600000D03*
%TD*%
D18*
%TO.C,J1*%
X206242500Y-191000000D03*
D19*
X206242500Y-197000000D03*
D20*
X210942500Y-194000000D03*
%TD*%
D10*
%TO.C,R71*%
X280740000Y-127600000D03*
D13*
X288360000Y-127600000D03*
%TD*%
D10*
%TO.C,R15*%
X120050000Y-200210000D03*
D13*
X120050000Y-192590000D03*
%TD*%
D10*
%TO.C,C19*%
X63700000Y-197550000D03*
X63700000Y-192550000D03*
%TD*%
D15*
%TO.C,U2*%
X150550000Y-186900000D03*
D16*
X153090000Y-186900000D03*
X155630000Y-186900000D03*
X158170000Y-186900000D03*
X158170000Y-179280000D03*
X155630000Y-179280000D03*
X153090000Y-179280000D03*
X150550000Y-179280000D03*
%TD*%
D17*
%TO.C,TP3*%
X181000000Y-131150000D03*
%TD*%
D21*
%TO.C,T1*%
X218040000Y-173560000D03*
D22*
X218040000Y-178640000D03*
X225660000Y-173560000D03*
X225660000Y-178640000D03*
%TD*%
D15*
%TO.C,U16*%
X332400000Y-186900000D03*
D16*
X334940000Y-186900000D03*
X337480000Y-186900000D03*
X340020000Y-186900000D03*
X340020000Y-179280000D03*
X337480000Y-179280000D03*
X334940000Y-179280000D03*
X332400000Y-179280000D03*
%TD*%
D10*
%TO.C,C47*%
X280900000Y-197450000D03*
X280900000Y-192450000D03*
%TD*%
%TO.C,R89*%
X339460000Y-176250000D03*
D13*
X331840000Y-176250000D03*
%TD*%
D10*
%TO.C,R11*%
X41350000Y-200210000D03*
D13*
X41350000Y-192590000D03*
%TD*%
D10*
%TO.C,R77*%
X219250000Y-134950000D03*
D13*
X226870000Y-134950000D03*
%TD*%
D23*
%TO.C,C50*%
X230447349Y-188450000D03*
D10*
X233947349Y-188450000D03*
%TD*%
%TO.C,R64*%
X207790000Y-149500000D03*
D13*
X215410000Y-149500000D03*
%TD*%
D10*
%TO.C,R52*%
X149890000Y-127800000D03*
D13*
X157510000Y-127800000D03*
%TD*%
D10*
%TO.C,C43*%
X332000000Y-197500000D03*
X332000000Y-192500000D03*
%TD*%
%TO.C,C18*%
X76200000Y-197550000D03*
X76200000Y-192550000D03*
%TD*%
%TO.C,R59*%
X111740000Y-127800000D03*
D13*
X119360000Y-127800000D03*
%TD*%
D10*
%TO.C,R21*%
X44350000Y-200210000D03*
D13*
X44350000Y-192590000D03*
%TD*%
D10*
%TO.C,C13*%
X139750000Y-197500000D03*
X139750000Y-192500000D03*
%TD*%
%TO.C,R30*%
X48850000Y-190000000D03*
D13*
X56470000Y-190000000D03*
%TD*%
D24*
%TO.C,U23*%
X214945000Y-160340000D03*
D25*
X214945000Y-157800000D03*
X214945000Y-155260000D03*
%TD*%
D10*
%TO.C,R75*%
X319190000Y-127700000D03*
D13*
X326810000Y-127700000D03*
%TD*%
D15*
%TO.C,U1*%
X163300000Y-186900000D03*
D16*
X165840000Y-186900000D03*
X168380000Y-186900000D03*
X170920000Y-186900000D03*
X170920000Y-179280000D03*
X168380000Y-179280000D03*
X165840000Y-179280000D03*
X163300000Y-179280000D03*
%TD*%
D17*
%TO.C,TP27*%
X231700000Y-177200000D03*
%TD*%
D10*
%TO.C,C11*%
X36250000Y-197550000D03*
X36250000Y-192550000D03*
%TD*%
%TO.C,C20*%
X51250000Y-197550000D03*
X51250000Y-192550000D03*
%TD*%
%TO.C,R85*%
X219440000Y-168350000D03*
D13*
X227060000Y-168350000D03*
%TD*%
D10*
%TO.C,R73*%
X243090000Y-189900000D03*
D13*
X250710000Y-189900000D03*
%TD*%
D10*
%TO.C,R103*%
X280900000Y-189900000D03*
D13*
X288520000Y-189900000D03*
%TD*%
D10*
%TO.C,R110*%
X327450000Y-200160000D03*
D13*
X327450000Y-192540000D03*
%TD*%
D10*
%TO.C,C12*%
X152550000Y-197500000D03*
X152550000Y-192500000D03*
%TD*%
%TO.C,R94*%
X275460000Y-176150000D03*
D13*
X267840000Y-176150000D03*
%TD*%
D14*
%TO.C,PTL3*%
X139800000Y-172050000D03*
X137300000Y-172050000D03*
X139800000Y-132050000D03*
X144800000Y-132050000D03*
X144800000Y-172050000D03*
X142300000Y-172050000D03*
%TD*%
D10*
%TO.C,R80*%
X219300000Y-148000000D03*
D13*
X226920000Y-148000000D03*
%TD*%
D10*
%TO.C,R124*%
X273100000Y-200060000D03*
D13*
X273100000Y-192440000D03*
%TD*%
D10*
%TO.C,C10*%
X48850000Y-197550000D03*
X48850000Y-192550000D03*
%TD*%
D14*
%TO.C,PTL4*%
X127100000Y-172100000D03*
X124600000Y-172100000D03*
X127100000Y-132100000D03*
X132100000Y-132100000D03*
X132100000Y-172100000D03*
X129600000Y-172100000D03*
%TD*%
D10*
%TO.C,C38*%
X270400000Y-197400000D03*
X270400000Y-192400000D03*
%TD*%
%TO.C,C35*%
X309150000Y-197400000D03*
X309150000Y-192400000D03*
%TD*%
%TO.C,R62*%
X36340000Y-127700000D03*
D13*
X43960000Y-127700000D03*
%TD*%
D10*
%TO.C,R18*%
X81900000Y-200210000D03*
D13*
X81900000Y-192590000D03*
%TD*%
D10*
%TO.C,R45*%
X193250000Y-143750000D03*
D13*
X185630000Y-143750000D03*
%TD*%
D10*
%TO.C,R113*%
X289000000Y-200110000D03*
D13*
X289000000Y-192490000D03*
%TD*%
D10*
%TO.C,R14*%
X132750000Y-200210000D03*
D13*
X132750000Y-192590000D03*
%TD*%
D15*
%TO.C,U3*%
X137750000Y-186900000D03*
D16*
X140290000Y-186900000D03*
X142830000Y-186900000D03*
X145370000Y-186900000D03*
X145370000Y-179280000D03*
X142830000Y-179280000D03*
X140290000Y-179280000D03*
X137750000Y-179280000D03*
%TD*%
D17*
%TO.C,TP5*%
X181000000Y-139500000D03*
%TD*%
D10*
%TO.C,R13*%
X145450000Y-200160000D03*
D13*
X145450000Y-192540000D03*
%TD*%
D10*
%TO.C,R26*%
X99190000Y-190000000D03*
D13*
X106810000Y-190000000D03*
%TD*%
D10*
%TO.C,C28*%
X214150000Y-136500000D03*
X209150000Y-136500000D03*
%TD*%
%TO.C,C8*%
X73800000Y-197550000D03*
X73800000Y-192550000D03*
%TD*%
D14*
%TO.C,PTL14*%
X359540000Y-172000000D03*
X357040000Y-172000000D03*
X359540000Y-132000000D03*
X364540000Y-132000000D03*
X364540000Y-172000000D03*
X362040000Y-172000000D03*
%TD*%
D15*
%TO.C,U17*%
X319750000Y-186900000D03*
D16*
X322290000Y-186900000D03*
X324830000Y-186900000D03*
X327370000Y-186900000D03*
X327370000Y-179280000D03*
X324830000Y-179280000D03*
X322290000Y-179280000D03*
X319750000Y-179280000D03*
%TD*%
D10*
%TO.C,C3*%
X137350000Y-197500000D03*
X137350000Y-192500000D03*
%TD*%
D17*
%TO.C,TP25*%
X231650000Y-164300000D03*
%TD*%
D10*
%TO.C,C21*%
X38650000Y-197550000D03*
X38650000Y-192550000D03*
%TD*%
%TO.C,R69*%
X293440000Y-127600000D03*
D13*
X301060000Y-127600000D03*
%TD*%
D10*
%TO.C,R92*%
X301160000Y-176200000D03*
D13*
X293540000Y-176200000D03*
%TD*%
D10*
%TO.C,R81*%
X219300000Y-152200000D03*
D13*
X226920000Y-152200000D03*
%TD*%
D14*
%TO.C,PTL16*%
X334350000Y-172000000D03*
X331850000Y-172000000D03*
X334350000Y-132000000D03*
X339350000Y-132000000D03*
X339350000Y-172000000D03*
X336850000Y-172000000D03*
%TD*%
D10*
%TO.C,R53*%
X86040000Y-127850000D03*
D13*
X93660000Y-127850000D03*
%TD*%
D10*
%TO.C,R108*%
X352800000Y-200160000D03*
D13*
X352800000Y-192540000D03*
%TD*%
D23*
%TO.C,C1*%
X182502651Y-188300000D03*
D10*
X179002651Y-188300000D03*
%TD*%
%TO.C,R90*%
X326810000Y-176250000D03*
D13*
X319190000Y-176250000D03*
%TD*%
D10*
%TO.C,R128*%
X242540000Y-127550000D03*
D13*
X250160000Y-127550000D03*
%TD*%
D10*
%TO.C,C45*%
X306750000Y-197400000D03*
X306750000Y-192400000D03*
%TD*%
%TO.C,R88*%
X352160000Y-176250000D03*
D13*
X344540000Y-176250000D03*
%TD*%
D10*
%TO.C,R122*%
X298800000Y-200110000D03*
D13*
X298800000Y-192490000D03*
%TD*%
D10*
%TO.C,C7*%
X86400000Y-197550000D03*
X86400000Y-192550000D03*
%TD*%
D14*
%TO.C,PTL19*%
X296050000Y-171950000D03*
X293550000Y-171950000D03*
X296050000Y-131950000D03*
X301050000Y-131950000D03*
X301050000Y-171950000D03*
X298550000Y-171950000D03*
%TD*%
D10*
%TO.C,R126*%
X239350000Y-179740000D03*
D13*
X239350000Y-187360000D03*
%TD*%
D23*
%TO.C,C23*%
X199600000Y-154647349D03*
D10*
X199600000Y-158147349D03*
%TD*%
%TO.C,R119*%
X337100000Y-200160000D03*
D13*
X337100000Y-192540000D03*
%TD*%
D10*
%TO.C,R28*%
X73790000Y-190000000D03*
D13*
X81410000Y-190000000D03*
%TD*%
D10*
%TO.C,R22*%
X150150000Y-189950000D03*
D13*
X157770000Y-189950000D03*
%TD*%
D10*
%TO.C,C32*%
X347100000Y-197500000D03*
X347100000Y-192500000D03*
%TD*%
%TO.C,R47*%
X193250000Y-152000000D03*
D13*
X185630000Y-152000000D03*
%TD*%
D10*
%TO.C,R86*%
X377310000Y-176250000D03*
D13*
X369690000Y-176250000D03*
%TD*%
D10*
%TO.C,R35*%
X119410000Y-176300000D03*
D13*
X111790000Y-176300000D03*
%TD*%
D17*
%TO.C,TP20*%
X231600000Y-143750000D03*
%TD*%
D14*
%TO.C,PTL20*%
X283350000Y-171950000D03*
X280850000Y-171950000D03*
X283350000Y-131950000D03*
X288350000Y-131950000D03*
X288350000Y-171950000D03*
X285850000Y-171950000D03*
%TD*%
D10*
%TO.C,R8*%
X78900000Y-200210000D03*
D13*
X78900000Y-192590000D03*
%TD*%
D10*
%TO.C,C49*%
X255000000Y-197400000D03*
X255000000Y-192400000D03*
%TD*%
%TO.C,R32*%
X157610000Y-176250000D03*
D13*
X149990000Y-176250000D03*
%TD*%
D15*
%TO.C,U7*%
X86800000Y-186950000D03*
D16*
X89340000Y-186950000D03*
X91880000Y-186950000D03*
X94420000Y-186950000D03*
X94420000Y-179330000D03*
X91880000Y-179330000D03*
X89340000Y-179330000D03*
X86800000Y-179330000D03*
%TD*%
D10*
%TO.C,R60*%
X48690000Y-127800000D03*
D13*
X56310000Y-127800000D03*
%TD*%
D10*
%TO.C,R127*%
X254890000Y-127550000D03*
D13*
X262510000Y-127550000D03*
%TD*%
D17*
%TO.C,TP14*%
X214150000Y-132000000D03*
%TD*%
D14*
%TO.C,PTL5*%
X114400000Y-172050000D03*
X111900000Y-172050000D03*
X114400000Y-132050000D03*
X119400000Y-132050000D03*
X119400000Y-172050000D03*
X116900000Y-172050000D03*
%TD*%
D10*
%TO.C,R61*%
X99230000Y-127850000D03*
D13*
X106850000Y-127850000D03*
%TD*%
D14*
%TO.C,PTL6*%
X101790000Y-172100000D03*
X99290000Y-172100000D03*
X101790000Y-132100000D03*
X106790000Y-132100000D03*
X106790000Y-172100000D03*
X104290000Y-172100000D03*
%TD*%
D10*
%TO.C,C6*%
X99190000Y-197550000D03*
X99190000Y-192550000D03*
%TD*%
D14*
%TO.C,PTL9*%
X63650000Y-172050000D03*
X61150000Y-172050000D03*
X63650000Y-132050000D03*
X68650000Y-132050000D03*
X68650000Y-172050000D03*
X66150000Y-172050000D03*
%TD*%
D10*
%TO.C,R105*%
X255000000Y-189850000D03*
D13*
X262620000Y-189850000D03*
%TD*%
D10*
%TO.C,R78*%
X219260000Y-139150000D03*
D13*
X226880000Y-139150000D03*
%TD*%
D10*
%TO.C,C46*%
X293700000Y-197450000D03*
X293700000Y-192450000D03*
%TD*%
%TO.C,R118*%
X349800000Y-200160000D03*
D13*
X349800000Y-192540000D03*
%TD*%
D23*
%TO.C,C22*%
X165250000Y-195147349D03*
D10*
X165250000Y-198647349D03*
%TD*%
D15*
%TO.C,U11*%
X36650000Y-186950000D03*
D16*
X39190000Y-186950000D03*
X41730000Y-186950000D03*
X44270000Y-186950000D03*
X44270000Y-179330000D03*
X41730000Y-179330000D03*
X39190000Y-179330000D03*
X36650000Y-179330000D03*
%TD*%
D10*
%TO.C,R48*%
X193250000Y-156100000D03*
D13*
X185630000Y-156100000D03*
%TD*%
D10*
%TO.C,R65*%
X163440000Y-127750000D03*
D13*
X171060000Y-127750000D03*
%TD*%
D10*
%TO.C,R3*%
X142450000Y-200160000D03*
D13*
X142450000Y-192540000D03*
%TD*%
D10*
%TO.C,R91*%
X314210000Y-176150000D03*
D13*
X306590000Y-176150000D03*
%TD*%
D10*
%TO.C,C2*%
X150150000Y-197500000D03*
X150150000Y-192500000D03*
%TD*%
%TO.C,R112*%
X301800000Y-200110000D03*
D13*
X301800000Y-192490000D03*
%TD*%
D15*
%TO.C,U4*%
X125050000Y-186950000D03*
D16*
X127590000Y-186950000D03*
X130130000Y-186950000D03*
X132670000Y-186950000D03*
X132670000Y-179330000D03*
X130130000Y-179330000D03*
X127590000Y-179330000D03*
X125050000Y-179330000D03*
%TD*%
D10*
%TO.C,R56*%
X73440000Y-127800000D03*
D13*
X81060000Y-127800000D03*
%TD*%
D15*
%TO.C,U20*%
X281300000Y-186850000D03*
D16*
X283840000Y-186850000D03*
X286380000Y-186850000D03*
X288920000Y-186850000D03*
X288920000Y-179230000D03*
X286380000Y-179230000D03*
X283840000Y-179230000D03*
X281300000Y-179230000D03*
%TD*%
D10*
%TO.C,R96*%
X369840000Y-189950000D03*
D13*
X377460000Y-189950000D03*
%TD*%
D10*
%TO.C,R29*%
X61300000Y-190000000D03*
D13*
X68920000Y-190000000D03*
%TD*%
D10*
%TO.C,R95*%
X262510000Y-176150000D03*
D13*
X254890000Y-176150000D03*
%TD*%
D10*
%TO.C,R104*%
X267990000Y-189850000D03*
D13*
X275610000Y-189850000D03*
%TD*%
D10*
%TO.C,C30*%
X372250000Y-197500000D03*
X372250000Y-192500000D03*
%TD*%
%TO.C,R100*%
X319350000Y-189950000D03*
D13*
X326970000Y-189950000D03*
%TD*%
D14*
%TO.C,PTL15*%
X347100000Y-172000000D03*
X344600000Y-172000000D03*
X347100000Y-132000000D03*
X352100000Y-132000000D03*
X352100000Y-172000000D03*
X349600000Y-172000000D03*
%TD*%
D10*
%TO.C,C37*%
X283300000Y-197450000D03*
X283300000Y-192450000D03*
%TD*%
D17*
%TO.C,TP1*%
X197800000Y-132000000D03*
%TD*%
D10*
%TO.C,R121*%
X311850000Y-200060000D03*
D13*
X311850000Y-192440000D03*
%TD*%
D15*
%TO.C,U15*%
X345100000Y-186900000D03*
D16*
X347640000Y-186900000D03*
X350180000Y-186900000D03*
X352720000Y-186900000D03*
X352720000Y-179280000D03*
X350180000Y-179280000D03*
X347640000Y-179280000D03*
X345100000Y-179280000D03*
%TD*%
D10*
%TO.C,C5*%
X111950000Y-197550000D03*
X111950000Y-192550000D03*
%TD*%
%TO.C,R54*%
X162790000Y-189950000D03*
D13*
X170410000Y-189950000D03*
%TD*%
D15*
%TO.C,U22*%
X255450000Y-186800000D03*
D16*
X257990000Y-186800000D03*
X260530000Y-186800000D03*
X263070000Y-186800000D03*
X263070000Y-179180000D03*
X260530000Y-179180000D03*
X257990000Y-179180000D03*
X255450000Y-179180000D03*
%TD*%
D10*
%TO.C,R107*%
X365340000Y-200160000D03*
D13*
X365340000Y-192540000D03*
%TD*%
D10*
%TO.C,C39*%
X257400000Y-197400000D03*
X257400000Y-192400000D03*
%TD*%
%TO.C,R36*%
X106650000Y-176300000D03*
D13*
X99030000Y-176300000D03*
%TD*%
D17*
%TO.C,TP4*%
X181000000Y-135300000D03*
%TD*%
D10*
%TO.C,R97*%
X357240000Y-189950000D03*
D13*
X364860000Y-189950000D03*
%TD*%
D10*
%TO.C,C24*%
X207100000Y-158600000D03*
X207100000Y-153600000D03*
%TD*%
D14*
%TO.C,PTL13*%
X372100000Y-172000000D03*
X369600000Y-172000000D03*
X372100000Y-132000000D03*
X377100000Y-132000000D03*
X377100000Y-172000000D03*
X374600000Y-172000000D03*
%TD*%
%TO.C,PTL21*%
X270350000Y-171950000D03*
X267850000Y-171950000D03*
X270350000Y-131950000D03*
X275350000Y-131950000D03*
X275350000Y-171950000D03*
X272850000Y-171950000D03*
%TD*%
D10*
%TO.C,C16*%
X101590000Y-197550000D03*
X101590000Y-192550000D03*
%TD*%
D23*
%TO.C,C29*%
X248150000Y-195097349D03*
D10*
X248150000Y-198597349D03*
%TD*%
%TO.C,R23*%
X137340000Y-189950000D03*
D13*
X144960000Y-189950000D03*
%TD*%
D10*
%TO.C,C34*%
X321750000Y-197500000D03*
X321750000Y-192500000D03*
%TD*%
%TO.C,R19*%
X69400000Y-200210000D03*
D13*
X69400000Y-192590000D03*
%TD*%
D17*
%TO.C,TP12*%
X181000000Y-168350000D03*
%TD*%
D10*
%TO.C,R70*%
X344440000Y-127650000D03*
D13*
X352060000Y-127650000D03*
%TD*%
D17*
%TO.C,TP18*%
X231650000Y-134950000D03*
%TD*%
D10*
%TO.C,R31*%
X36250000Y-190000000D03*
D13*
X43870000Y-190000000D03*
%TD*%
D10*
%TO.C,C14*%
X127050000Y-197550000D03*
X127050000Y-192550000D03*
%TD*%
%TO.C,C9*%
X61300000Y-197550000D03*
X61300000Y-192550000D03*
%TD*%
%TO.C,R102*%
X293690000Y-189900000D03*
D13*
X301310000Y-189900000D03*
%TD*%
D15*
%TO.C,U9*%
X61700000Y-186950000D03*
D16*
X64240000Y-186950000D03*
X66780000Y-186950000D03*
X69320000Y-186950000D03*
X69320000Y-179330000D03*
X66780000Y-179330000D03*
X64240000Y-179330000D03*
X61700000Y-179330000D03*
%TD*%
D10*
%TO.C,R79*%
X219290000Y-143750000D03*
D13*
X226910000Y-143750000D03*
%TD*%
D17*
%TO.C,TP11*%
X181000000Y-164250000D03*
%TD*%
%TO.C,TP2*%
X181000000Y-176950000D03*
%TD*%
D10*
%TO.C,R109*%
X340100000Y-200160000D03*
D13*
X340100000Y-192540000D03*
%TD*%
D10*
%TO.C,C53*%
X203800000Y-162500000D03*
X208800000Y-162500000D03*
%TD*%
D14*
%TO.C,PTL1*%
X166100000Y-172000000D03*
X163600000Y-172000000D03*
X166100000Y-132000000D03*
X171100000Y-132000000D03*
X171100000Y-172000000D03*
X168600000Y-172000000D03*
%TD*%
D17*
%TO.C,TP13*%
X173900000Y-190400000D03*
%TD*%
D10*
%TO.C,R123*%
X286000000Y-200110000D03*
D13*
X286000000Y-192490000D03*
%TD*%
D10*
%TO.C,R34*%
X132110000Y-176300000D03*
D13*
X124490000Y-176300000D03*
%TD*%
D10*
%TO.C,R25*%
X111990000Y-190000000D03*
D13*
X119610000Y-190000000D03*
%TD*%
D26*
%TO.C,SW3*%
X173050000Y-198000000D03*
D27*
X177750000Y-198000000D03*
X182450000Y-198000000D03*
%TD*%
D26*
%TO.C,SW2*%
X239800000Y-198600000D03*
D27*
X235100000Y-198600000D03*
X230400000Y-198600000D03*
%TD*%
D10*
%TO.C,R5*%
X117050000Y-200210000D03*
D13*
X117050000Y-192590000D03*
%TD*%
D10*
%TO.C,R50*%
X193250000Y-164250000D03*
D13*
X185630000Y-164250000D03*
%TD*%
D10*
%TO.C,C48*%
X268000000Y-197400000D03*
X268000000Y-192400000D03*
%TD*%
D15*
%TO.C,U19*%
X294110000Y-186850000D03*
D16*
X296650000Y-186850000D03*
X299190000Y-186850000D03*
X301730000Y-186850000D03*
X301730000Y-179230000D03*
X299190000Y-179230000D03*
X296650000Y-179230000D03*
X294110000Y-179230000D03*
%TD*%
D17*
%TO.C,TP28*%
X181000000Y-172650000D03*
%TD*%
D14*
%TO.C,PTL12*%
X245150000Y-171950000D03*
X242650000Y-171950000D03*
X245150000Y-131950000D03*
X250150000Y-131950000D03*
X250150000Y-171950000D03*
X247650000Y-171950000D03*
%TD*%
D17*
%TO.C,TP19*%
X231650000Y-139150000D03*
%TD*%
D10*
%TO.C,R51*%
X193260000Y-168300000D03*
D13*
X185640000Y-168300000D03*
%TD*%
D10*
%TO.C,C52*%
X229600000Y-182450000D03*
X234600000Y-182450000D03*
%TD*%
%TO.C,R68*%
X356940000Y-127700000D03*
D13*
X364560000Y-127700000D03*
%TD*%
D10*
%TO.C,C51*%
X183400000Y-182450000D03*
X178400000Y-182450000D03*
%TD*%
D15*
%TO.C,U21*%
X268400000Y-186800000D03*
D16*
X270940000Y-186800000D03*
X273480000Y-186800000D03*
X276020000Y-186800000D03*
X276020000Y-179180000D03*
X273480000Y-179180000D03*
X270940000Y-179180000D03*
X268400000Y-179180000D03*
%TD*%
D10*
%TO.C,C27*%
X202800000Y-136500000D03*
X197800000Y-136500000D03*
%TD*%
D15*
%TO.C,U14*%
X357640000Y-186900000D03*
D16*
X360180000Y-186900000D03*
X362720000Y-186900000D03*
X365260000Y-186900000D03*
X365260000Y-179280000D03*
X362720000Y-179280000D03*
X360180000Y-179280000D03*
X357640000Y-179280000D03*
%TD*%
D17*
%TO.C,TP16*%
X238950000Y-190950000D03*
%TD*%
D10*
%TO.C,R87*%
X364690000Y-176250000D03*
D13*
X357070000Y-176250000D03*
%TD*%
D10*
%TO.C,R6*%
X104290000Y-200210000D03*
D13*
X104290000Y-192590000D03*
%TD*%
D10*
%TO.C,C17*%
X88800000Y-197550000D03*
X88800000Y-192550000D03*
%TD*%
%TO.C,R106*%
X377950000Y-200160000D03*
D13*
X377950000Y-192540000D03*
%TD*%
D10*
%TO.C,R82*%
X219340000Y-156150000D03*
D13*
X226960000Y-156150000D03*
%TD*%
D10*
%TO.C,R84*%
X219400000Y-164300000D03*
D13*
X227020000Y-164300000D03*
%TD*%
D14*
%TO.C,PTL10*%
X51300000Y-172050000D03*
X48800000Y-172050000D03*
X51300000Y-132050000D03*
X56300000Y-132050000D03*
X56300000Y-172050000D03*
X53800000Y-172050000D03*
%TD*%
D10*
%TO.C,R10*%
X53950000Y-200210000D03*
D13*
X53950000Y-192590000D03*
%TD*%
D10*
%TO.C,C15*%
X114350000Y-197550000D03*
X114350000Y-192550000D03*
%TD*%
%TO.C,R66*%
X369490000Y-127700000D03*
D13*
X377110000Y-127700000D03*
%TD*%
D10*
%TO.C,R57*%
X124440000Y-127850000D03*
D13*
X132060000Y-127850000D03*
%TD*%
D10*
%TO.C,C33*%
X334400000Y-197500000D03*
X334400000Y-192500000D03*
%TD*%
D17*
%TO.C,TP15*%
X206000000Y-132000000D03*
%TD*%
D10*
%TO.C,R58*%
X61090000Y-127800000D03*
D13*
X68710000Y-127800000D03*
%TD*%
D10*
%TO.C,R33*%
X144810000Y-176250000D03*
D13*
X137190000Y-176250000D03*
%TD*%
D17*
%TO.C,TP24*%
X231650000Y-160200000D03*
%TD*%
D14*
%TO.C,PTL2*%
X152550000Y-172050000D03*
X150050000Y-172050000D03*
X152550000Y-132050000D03*
X157550000Y-132050000D03*
X157550000Y-172050000D03*
X155050000Y-172050000D03*
%TD*%
D10*
%TO.C,C41*%
X357240000Y-197500000D03*
X357240000Y-192500000D03*
%TD*%
%TO.C,R116*%
X374950000Y-200150000D03*
D13*
X374950000Y-192530000D03*
%TD*%
D17*
%TO.C,TP8*%
X181000000Y-152000000D03*
%TD*%
D10*
%TO.C,R55*%
X137140000Y-127750000D03*
D13*
X144760000Y-127750000D03*
%TD*%
D15*
%TO.C,U18*%
X307150000Y-186800000D03*
D16*
X309690000Y-186800000D03*
X312230000Y-186800000D03*
X314770000Y-186800000D03*
X314770000Y-179180000D03*
X312230000Y-179180000D03*
X309690000Y-179180000D03*
X307150000Y-179180000D03*
%TD*%
D10*
%TO.C,R115*%
X263100000Y-200060000D03*
D13*
X263100000Y-192440000D03*
%TD*%
D10*
%TO.C,R43*%
X193250000Y-135350000D03*
D13*
X185630000Y-135350000D03*
%TD*%
D15*
%TO.C,U13*%
X370250000Y-186900000D03*
D16*
X372790000Y-186900000D03*
X375330000Y-186900000D03*
X377870000Y-186900000D03*
X377870000Y-179280000D03*
X375330000Y-179280000D03*
X372790000Y-179280000D03*
X370250000Y-179280000D03*
%TD*%
D21*
%TO.C,T2*%
X194810000Y-178640000D03*
D22*
X194810000Y-173560000D03*
X187190000Y-178640000D03*
X187190000Y-173560000D03*
%TD*%
D10*
%TO.C,C36*%
X296100000Y-197450000D03*
X296100000Y-192450000D03*
%TD*%
%TO.C,R101*%
X306750000Y-189850000D03*
D13*
X314370000Y-189850000D03*
%TD*%
D10*
%TO.C,R39*%
X68760000Y-176300000D03*
D13*
X61140000Y-176300000D03*
%TD*%
D10*
%TO.C,R1*%
X174000000Y-179790000D03*
D13*
X174000000Y-187410000D03*
%TD*%
D10*
%TO.C,R4*%
X129750000Y-200210000D03*
D13*
X129750000Y-192590000D03*
%TD*%
D23*
%TO.C,C25*%
X198647349Y-142750000D03*
D10*
X202147349Y-142750000D03*
%TD*%
D15*
%TO.C,U12*%
X242550000Y-186850000D03*
D16*
X245090000Y-186850000D03*
X247630000Y-186850000D03*
X250170000Y-186850000D03*
X250170000Y-179230000D03*
X247630000Y-179230000D03*
X245090000Y-179230000D03*
X242550000Y-179230000D03*
%TD*%
D14*
%TO.C,PTL8*%
X76050000Y-172050000D03*
X73550000Y-172050000D03*
X76050000Y-132050000D03*
X81050000Y-132050000D03*
X81050000Y-172050000D03*
X78550000Y-172050000D03*
%TD*%
D17*
%TO.C,TP9*%
X181000000Y-156150000D03*
%TD*%
D10*
%TO.C,R74*%
X267740000Y-127600000D03*
D13*
X275360000Y-127600000D03*
%TD*%
D17*
%TO.C,TP7*%
X181000000Y-147900000D03*
%TD*%
D10*
%TO.C,R72*%
X331740000Y-127700000D03*
D13*
X339360000Y-127700000D03*
%TD*%
D17*
%TO.C,TP29*%
X231750000Y-172850000D03*
%TD*%
%TO.C,TP17*%
X231650000Y-130950000D03*
%TD*%
D14*
%TO.C,PTL7*%
X88650000Y-172100000D03*
X86150000Y-172100000D03*
X88650000Y-132100000D03*
X93650000Y-132100000D03*
X93650000Y-172100000D03*
X91150000Y-172100000D03*
%TD*%
D10*
%TO.C,R125*%
X260100000Y-200060000D03*
D13*
X260100000Y-192440000D03*
%TD*%
D14*
%TO.C,PTL22*%
X257550000Y-171950000D03*
X255050000Y-171950000D03*
X257550000Y-131950000D03*
X262550000Y-131950000D03*
X262550000Y-171950000D03*
X260050000Y-171950000D03*
%TD*%
%TO.C,PTL11*%
X38750000Y-172000000D03*
X36250000Y-172000000D03*
X38750000Y-132000000D03*
X43750000Y-132000000D03*
X43750000Y-172000000D03*
X41250000Y-172000000D03*
%TD*%
D10*
%TO.C,R63*%
X196690000Y-149500000D03*
D13*
X204310000Y-149500000D03*
%TD*%
D10*
%TO.C,R20*%
X56950000Y-200210000D03*
D13*
X56950000Y-192590000D03*
%TD*%
D10*
%TO.C,C44*%
X319350000Y-197500000D03*
X319350000Y-192500000D03*
%TD*%
D15*
%TO.C,U5*%
X112350000Y-186950000D03*
D16*
X114890000Y-186950000D03*
X117430000Y-186950000D03*
X119970000Y-186950000D03*
X119970000Y-179330000D03*
X117430000Y-179330000D03*
X114890000Y-179330000D03*
X112350000Y-179330000D03*
%TD*%
D10*
%TO.C,R41*%
X43700000Y-176300000D03*
D13*
X36080000Y-176300000D03*
%TD*%
D26*
%TO.C,SW1*%
X206240000Y-169460000D03*
D27*
X206240000Y-174160000D03*
X206240000Y-178860000D03*
%TD*%
D15*
%TO.C,U8*%
X74200000Y-186950000D03*
D16*
X76740000Y-186950000D03*
X79280000Y-186950000D03*
X81820000Y-186950000D03*
X81820000Y-179330000D03*
X79280000Y-179330000D03*
X76740000Y-179330000D03*
X74200000Y-179330000D03*
%TD*%
D10*
%TO.C,R17*%
X94500000Y-200210000D03*
D13*
X94500000Y-192590000D03*
%TD*%
D10*
%TO.C,R111*%
X314850000Y-200060000D03*
D13*
X314850000Y-192440000D03*
%TD*%
D10*
%TO.C,R37*%
X93860000Y-176300000D03*
D13*
X86240000Y-176300000D03*
%TD*%
D23*
%TO.C,C26*%
X209947349Y-142750000D03*
D10*
X213447349Y-142750000D03*
%TD*%
%TO.C,R27*%
X86400000Y-190000000D03*
D13*
X94020000Y-190000000D03*
%TD*%
D10*
%TO.C,R7*%
X91500000Y-200210000D03*
D13*
X91500000Y-192590000D03*
%TD*%
D10*
%TO.C,R98*%
X344700000Y-189950000D03*
D13*
X352320000Y-189950000D03*
%TD*%
D10*
%TO.C,R117*%
X362340000Y-200160000D03*
D13*
X362340000Y-192540000D03*
%TD*%
D10*
%TO.C,R49*%
X193250000Y-160150000D03*
D13*
X185630000Y-160150000D03*
%TD*%
D14*
%TO.C,PTL17*%
X321750000Y-172000000D03*
X319250000Y-172000000D03*
X321750000Y-132000000D03*
X326750000Y-132000000D03*
X326750000Y-172000000D03*
X324250000Y-172000000D03*
%TD*%
D10*
%TO.C,R2*%
X155250000Y-200160000D03*
D13*
X155250000Y-192540000D03*
%TD*%
D10*
%TO.C,R46*%
X193250000Y-147950000D03*
D13*
X185630000Y-147950000D03*
%TD*%
D10*
%TO.C,R24*%
X124650000Y-190000000D03*
D13*
X132270000Y-190000000D03*
%TD*%
D10*
%TO.C,R16*%
X107290000Y-200210000D03*
D13*
X107290000Y-192590000D03*
%TD*%
D17*
%TO.C,TP22*%
X231650000Y-152200000D03*
%TD*%
D10*
%TO.C,C31*%
X359640000Y-197500000D03*
X359640000Y-192500000D03*
%TD*%
%TO.C,R40*%
X56310000Y-176300000D03*
D13*
X48690000Y-176300000D03*
%TD*%
D10*
%TO.C,R38*%
X81250000Y-176300000D03*
D13*
X73630000Y-176300000D03*
%TD*%
D10*
%TO.C,R9*%
X66400000Y-200210000D03*
D13*
X66400000Y-192590000D03*
%TD*%
D17*
%TO.C,TP6*%
X181000000Y-143750000D03*
%TD*%
M02*
